<!-- Generated by IcoMoon.io -->
<svg version="1.1" xmlns="http://www.w3.org/2000/svg" width="1261" height="1024" viewBox="0 0 1261 1024">
<g id="icomoon-ignore">
</g>
<path fill="#c30f2e" d="M749.030 72.553l502.212 876.174h-1004.424l502.212-876.174z"></path>
<path fill="#dd0330" d="M439.714 203.062l427.393 747.966h-854.805l427.393-747.966z"></path>
<path fill="#fff" d="M1166.083 727.321h-1065.848v-11.7h1065.848v11.7z"></path>
<path fill="#fff" d="M1001.427 898.513c-4.17 0-8.081-1.719-11.365-5.002-19.584-19.662-20.428-99.614-19.488-219.382 0.539-65.443 1.252-155.065-9.183-162.14-10.197 4.224-11.203 78.257-11.862 127.28-0.779 57.038-1.588 116.054-10.856 146.097-2.755 8.902-6.32 17.068-13.492 16.409-10.1-0.886-13.353-16.84-20.902-79.737-3.133-26.132-6.374-53.138-10.166-63.586-0.497-1.318-0.929-2.366-1.306-3.187-4.050 9.129-8.717 34.255-11.958 51.682-4.493 24.089-8.729 46.83-14.043 56.757-4.104 7.626-10.598 17.565-19.673 15.642-12.37-2.594-16.085-27.558-17.187-42.205 0-123.195-16.128-137.53-19.338-139.141l-0.509 0.389-0.779-0.173c-11.515 5.014-12.131 44.973-12.725 83.613-0.455 28.336-0.971 60.453-5.098 90.496-5.368 38.945-11.85 46.464-19.92 46.009-18.571-1.264-19.11-65.239-19.11-72.53 0-2.289 0.054-4.979 0.12-7.95 0.347-14.887 0.994-42.595-8.166-51.323-1.21-1.156-2.917-2.486-4.266-2.127-6.524 1.642-13.288 22.825-15.534 29.774-0.713 2.204-1.276 4.019-1.761 5.272-0.378 1.037-0.863 2.486-1.426 4.266-4.937 14.983-10.544 29.924-20.135 33.608-3.553 1.372-7.249 1.060-10.717-0.886-4.613-2.624-8.363-7.962-11.873-16.852-1.923-4.925-3.565-9.896-5.23-14.917-2.031-6.104-4.116-12.424-6.698-18.44-2.031-4.667-7.087-6.763-13.546-5.638-13.395 2.378-15.642 15.923-17.523 36.298-0.335 3.553-0.659 7.021-1.102 10.305-0.054 0.971-2.42 30.864-3.942 40.371-4.181 26.078-9.681 36.352-18.829 35.616-22.556-1.923-32.895-100.843-32.344-142.629 0.432-31.901-5.337-43.547-8.794-45.404-0.347-0.162-0.917-0.455-2.235 0.455-4.073 2.755-7.704 11.365-6.59 20.386 12.413 98.338 3.253 210.959-19.164 236.323-7.075 7.973-16.69 7.865-23.388 1.144-19.596-19.662-20.417-99.614-19.488-219.382 0.539-65.443 1.222-155.065-9.183-162.14-10.197 4.224-11.191 78.257-11.862 127.28-0.779 57.038-1.588 116.054-10.867 146.097-2.755 8.902-6.32 17.068-13.461 16.409-10.112-0.886-13.353-16.84-20.914-79.737-3.133-26.132-6.374-53.138-10.166-63.586-0.486-1.318-0.917-2.366-1.306-3.187-4.019 9.129-8.686 34.255-11.927 51.682-4.493 24.089-8.729 46.83-14.054 56.757-4.104 7.626-10.598 17.565-19.662 15.642-12.37-2.594-16.085-27.558-17.187-42.205-0.012-123.195-16.128-137.53-19.338-139.141l-0.509 0.389-0.809-0.173c-11.484 5.014-12.12 44.973-12.725 83.613-0.443 28.336-0.94 60.453-5.068 90.496-5.368 38.945-11.796 46.549-19.889 46.009-18.613-1.264-19.153-65.239-19.153-72.53 0-2.289 0.066-4.979 0.15-7.95 0.347-14.887 0.994-42.595-8.166-51.323-1.21-1.156-2.917-2.486-4.266-2.127-6.524 1.642-13.299 22.825-15.523 29.774-0.713 2.193-1.318 4.019-1.761 5.272-0.389 1.006-0.875 2.474-1.438 4.235-4.937 14.983-10.544 29.936-20.105 33.639-3.565 1.372-7.291 1.060-10.748-0.886-4.613-2.624-8.393-7.962-11.873-16.852-1.923-4.925-3.576-9.896-5.23-14.917-2.031-6.104-4.127-12.424-6.709-18.44-2.019-4.667-7.087-6.763-13.546-5.638-15.426 2.744-19.068 21.866-22.016 44.703l-0.509 4.062-11.677-1.545 0.551-3.996c2.54-20.028 6.428-50.287 31.608-54.738 11.85-2.096 22.19 2.809 26.359 12.509 2.798 6.482 4.99 13.029 7.087 19.392 1.576 4.786 3.175 9.592 5.014 14.324 3.253 8.274 5.781 10.394 6.74 10.921 5.889-1.827 11.916-20.159 13.904-26.197 0.617-1.935 1.156-3.553 1.588-4.678 0.401-1.114 0.94-2.755 1.588-4.732 5.314-16.594 11.97-34.579 23.789-37.562 3.619-0.929 9.214-0.809 15.276 5.002 12.898 12.305 12.228 41.030 11.765 60.064-0.066 2.852-0.15 5.445-0.15 7.669 0 30.355 4.505 51.562 7.95 58.853 1.773-3.726 4.829-12.736 7.734-33.92 4.019-29.361 4.547-61.1 4.979-89.101 0.779-49.562 1.33-85.482 19.272-93.93 2.678-1.642 7.099-2.528 11.796-0.162 17.349 8.729 25.766 57.524 25.766 149.134 1.091 14.162 4.894 29.061 8.027 31.2 0.012-0.324 2.57-1.881 6.752-9.723 4.463-8.328 8.933-32.267 12.844-53.366 8.675-46.518 12.617-62.861 22.879-63.705 7.812-0.767 11.43 9.172 12.952 13.353 4.278 11.711 7.453 38.167 10.802 66.198 2.624 21.735 6.351 52.761 10.143 65.324 0.401-1.102 0.875-2.42 1.372-4.050 8.783-28.444 9.592-86.573 10.34-142.802 1.060-78.114 2.432-126.501 16.69-136.602 3.175-2.247 7.033-2.798 10.813-1.534 16.69 5.542 17.966 54.468 17.026 173.265-0.671 86.141-1.522 193.359 16.085 211.012 1.534 1.545 2.624 1.545 3.014 1.545 0.821 0 1.989-0.779 3.241-2.193 17.804-20.147 29.091-125.938 16.313-227.098-1.588-12.586 3.283-25.82 11.58-31.523 4.571-3.145 9.842-3.565 14.401-1.114 10.382 5.53 15.426 24.317 15.006 55.882-0.725 55.115 12.509 119.599 21.141 129.904 1.372-2.289 4.073-8.524 6.686-24.91 1.468-9.052 3.858-39.462 3.9-39.755 0.432-3.445 0.755-6.763 1.048-10.154 1.773-18.991 3.966-42.606 27.168-46.722 11.819-2.096 22.178 2.798 26.359 12.509 2.798 6.482 4.979 13.029 7.075 19.392 1.599 4.786 3.199 9.592 5.056 14.324 3.241 8.274 5.781 10.394 6.709 10.921 5.889-1.827 11.927-20.159 13.904-26.186 0.647-1.935 1.168-3.565 1.588-4.709 0.432-1.102 0.94-2.755 1.576-4.732 5.326-16.594 11.981-34.579 23.831-37.562 3.576-0.929 9.183-0.809 15.264 5.002 12.898 12.305 12.228 41.030 11.796 60.064-0.096 2.852-0.162 5.445-0.162 7.669 0 30.355 4.505 51.562 7.95 58.853 1.761-3.726 4.817-12.736 7.746-33.92 4.019-29.361 4.505-61.1 4.979-89.101 0.767-49.562 1.318-85.482 19.261-93.93 2.678-1.642 7.099-2.528 11.808-0.162 17.338 8.729 25.766 57.524 25.766 149.134 1.091 14.162 4.894 29.061 8.016 31.2 0.042-0.324 2.54-1.881 6.763-9.723 4.463-8.328 8.902-32.267 12.844-53.366 8.632-46.518 12.586-62.861 22.849-63.705 7.842-0.767 11.461 9.172 12.964 13.353 4.266 11.711 7.422 38.167 10.813 66.198 2.582 21.735 6.308 52.761 10.112 65.324 0.389-1.102 0.863-2.42 1.36-4.050 8.783-28.444 9.561-86.573 10.34-142.802 1.048-78.114 2.432-126.501 16.69-136.602 3.187-2.247 7.033-2.798 10.813-1.534 16.702 5.542 17.997 54.468 17.026 173.265-0.671 86.141-1.522 193.359 16.074 211.012 1.576 1.545 2.636 1.545 3.037 1.545 0.809 0 1.977-0.779 3.199-2.193 17.846-20.147 29.103-125.938 16.324-227.098-1.653-13.18 2.085-26.467 8.902-31.577 3.445-2.594 7.626-3.133 11.472-1.522 9.939 4.235 16.679 22.405 20.59 55.57 1.642 13.893 3.091 28.918 4.505 43.72 3.091 32.344 7.303 75.933 12.975 85.525 1.75-2.235 5.314-8.243 10.598-24.382l11.16 3.661c-8.22 24.964-14.648 34.363-23.010 33.392-13.018-1.438-16.787-27.743-23.43-97.063-1.414-14.756-2.852-29.666-4.493-43.493-4.99-42.294-13.461-46.129-13.557-46.171-1.653 0.832-5.499 9.646-4.073 20.86 12.37 98.338 3.253 210.989-19.176 236.323-3.619 4.073-7.68 6.147-12.023 6.147z"></path>
</svg>
